<?xml version="1.0" encoding="us-ascii" standalone="no"?><svg xmlns="http://www.w3.org/2000/svg" xmlns:xlink="http://www.w3.org/1999/xlink" contentStyleType="text/css" height="1185px" preserveAspectRatio="none" style="width:1103px;height:1185px;background:#FFFFFF;" version="1.1" viewBox="0 0 1103 1185" width="1103px" zoomAndPan="magnify"><defs/><g><!--cluster app--><g id="cluster_app"><path d="M8.5,6 L38.5,6 A3.75,3.75 0 0 1 41,8.5 L48,28.2969 L929.5,28.2969 A2.5,2.5 0 0 1 932,30.7969 L932,1019.5 A2.5,2.5 0 0 1 929.5,1022 L8.5,1022 A2.5,2.5 0 0 1 6,1019.5 L6,8.5 A2.5,2.5 0 0 1 8.5,6 " fill="none" style="stroke:#000000;stroke-width:1.5;"/><line style="stroke:#000000;stroke-width:1.5;" x1="6" x2="48" y1="28.2969" y2="28.2969"/><text fill="#000000" font-family="sans-serif" font-size="14" font-weight="bold" lengthAdjust="spacing" textLength="29" x="10" y="20.9951">app</text></g><!--cluster backend--><g id="cluster_backend"><path d="M32.5,677 L100.5,677 A3.75,3.75 0 0 1 103,679.5 L110,699.2969 L885.5,699.2969 A2.5,2.5 0 0 1 888,701.7969 L888,995.5 A2.5,2.5 0 0 1 885.5,998 L32.5,998 A2.5,2.5 0 0 1 30,995.5 L30,679.5 A2.5,2.5 0 0 1 32.5,677 " fill="none" style="stroke:#000000;stroke-width:1.5;"/><line style="stroke:#000000;stroke-width:1.5;" x1="30" x2="110" y1="699.2969" y2="699.2969"/><text fill="#000000" font-family="sans-serif" font-size="14" font-weight="bold" lengthAdjust="spacing" textLength="67" x="34" y="691.9951">backend</text></g><!--cluster frontend--><g id="cluster_frontend"><path d="M32.5,228 L102.5,228 A3.75,3.75 0 0 1 105,230.5 L112,250.2969 L905.5,250.2969 A2.5,2.5 0 0 1 908,252.7969 L908,650.5 A2.5,2.5 0 0 1 905.5,653 L32.5,653 A2.5,2.5 0 0 1 30,650.5 L30,230.5 A2.5,2.5 0 0 1 32.5,228 " fill="none" style="stroke:#000000;stroke-width:1.5;"/><line style="stroke:#000000;stroke-width:1.5;" x1="30" x2="112" y1="250.2969" y2="250.2969"/><text fill="#000000" font-family="sans-serif" font-size="14" font-weight="bold" lengthAdjust="spacing" textLength="69" x="34" y="242.9951">frontend</text></g><!--cluster utils--><g id="cluster_utils"><path d="M294.5,1046 L328.5,1046 A3.75,3.75 0 0 1 331,1048.5 L338,1068.2969 L479.5,1068.2969 A2.5,2.5 0 0 1 482,1070.7969 L482,1175.5 A2.5,2.5 0 0 1 479.5,1178 L294.5,1178 A2.5,2.5 0 0 1 292,1175.5 L292,1048.5 A2.5,2.5 0 0 1 294.5,1046 " fill="none" style="stroke:#000000;stroke-width:1.5;"/><line style="stroke:#000000;stroke-width:1.5;" x1="292" x2="338" y1="1068.2969" y2="1068.2969"/><text fill="#000000" font-family="sans-serif" font-size="14" font-weight="bold" lengthAdjust="spacing" textLength="33" x="296" y="1060.9951">utils</text></g><!--class AppComponent--><g id="elem_AppComponent"><rect codeLine="69" fill="#F1F1F1" height="162.0781" id="AppComponent" rx="2.5" ry="2.5" style="stroke:#181818;stroke-width:0.5;" width="243" x="508.5" y="41"/><ellipse cx="571.25" cy="57" fill="#ADD1B2" rx="11" ry="11" style="stroke:#181818;stroke-width:1.0;"/><path d="M570.7188,63.9219 Q568.9688,63.9219 567.8281,63.1875 Q566.7031,62.4375 566.1406,61.0938 Q565.5938,59.7344 565.5938,57.9375 Q565.5938,55.9063 566.25,54.4531 Q566.9063,53 568.1875,52.2188 Q569.4688,51.4375 571.3438,51.4375 Q572.2344,51.4375 572.9063,51.625 Q573.5781,51.7969 574.2656,52.1406 L573.4531,54.1563 Q572.8281,53.8438 572.2813,53.7188 Q571.75,53.5938 571.2656,53.5938 Q570.0938,53.5938 569.3906,54.125 Q568.6875,54.6563 568.3906,55.6094 Q568.0938,56.5625 568.0938,57.8281 Q568.0938,59.8438 568.8125,60.8125 Q569.5313,61.7656 571.125,61.7656 Q571.7188,61.7656 572.3438,61.6094 Q572.9688,61.4531 573.7969,61.0781 L573.7969,63.2969 Q573.0625,63.6094 572.2656,63.7656 Q571.4844,63.9219 570.7188,63.9219 Z " fill="#000000"/><text fill="#000000" font-family="sans-serif" font-size="14" lengthAdjust="spacing" textLength="109" x="591.75" y="61.8467">AppComponent</text><line style="stroke:#181818;stroke-width:0.5;" x1="509.5" x2="750.5" y1="73" y2="73"/><rect fill="none" height="6" style="stroke:#C82930;stroke-width:1.0;" width="6" x="516.5" y="83.6484"/><text fill="#000000" font-family="sans-serif" font-size="14" lengthAdjust="spacing" textLength="199" x="528.5" y="89.9951">menuArchivoVisible: boolean</text><line style="stroke:#181818;stroke-width:0.5;" x1="509.5" x2="750.5" y1="97.2969" y2="97.2969"/><ellipse cx="519.5" cy="110.9453" fill="#84BE84" rx="3" ry="3" style="stroke:#038048;stroke-width:1.0;"/><text fill="#000000" font-family="sans-serif" font-size="14" lengthAdjust="spacing" textLength="217" x="528.5" y="114.292">AppComponent(router: Router)</text><rect fill="#F24D5C" height="6" style="stroke:#C82930;stroke-width:1.0;" width="6" x="516.5" y="124.2422"/><text fill="#000000" font-family="sans-serif" font-size="14" lengthAdjust="spacing" textLength="180" x="528.5" y="130.5889">toggleMenuArchivo(): void</text><rect fill="#F24D5C" height="6" style="stroke:#C82930;stroke-width:1.0;" width="6" x="516.5" y="140.5391"/><text fill="#000000" font-family="sans-serif" font-size="14" lengthAdjust="spacing" textLength="116" x="528.5" y="146.8857">clickFuera(): void</text><rect fill="#F24D5C" height="6" style="stroke:#C82930;stroke-width:1.0;" width="6" x="516.5" y="156.8359"/><text fill="#000000" font-family="sans-serif" font-size="14" lengthAdjust="spacing" textLength="140" x="528.5" y="163.1826">nuevoArchivo(): void</text><rect fill="#F24D5C" height="6" style="stroke:#C82930;stroke-width:1.0;" width="6" x="516.5" y="173.1328"/><text fill="#000000" font-family="sans-serif" font-size="14" lengthAdjust="spacing" textLength="127" x="528.5" y="179.4795">abrirArchivo(): void</text><rect fill="#F24D5C" height="6" style="stroke:#C82930;stroke-width:1.0;" width="6" x="516.5" y="189.4297"/><text fill="#000000" font-family="sans-serif" font-size="14" lengthAdjust="spacing" textLength="151" x="528.5" y="195.7764">leerArchivoYML(): void</text></g><!--class ArchivoCMM--><g id="elem_ArchivoCMM"><rect codeLine="3" fill="#F1F1F1" height="96.8906" id="ArchivoCMM" rx="2.5" ry="2.5" style="stroke:#181818;stroke-width:0.5;" width="149" x="642.5" y="877"/><ellipse cx="671.45" cy="893" fill="#B4A7E5" rx="11" ry="11" style="stroke:#181818;stroke-width:1.0;"/><path d="M667.4813,899.5 L667.4813,897.7969 L669.8406,897.5313 L669.8406,889.3281 L667.4813,889.0625 L667.4813,887.3594 L674.6219,887.3594 L674.6219,889.0625 L672.2,889.3281 L672.2,897.5313 L674.6219,897.7969 L674.6219,899.5 L667.4813,899.5 Z " fill="#000000"/><text fill="#000000" font-family="sans-serif" font-size="14" font-style="italic" lengthAdjust="spacing" textLength="86" x="688.55" y="897.8467">ArchivoCMM</text><line style="stroke:#181818;stroke-width:0.5;" x1="643.5" x2="790.5" y1="909" y2="909"/><ellipse cx="653.5" cy="922.6484" fill="none" rx="3" ry="3" style="stroke:#038048;stroke-width:1.0;"/><text fill="#000000" font-family="sans-serif" font-size="14" lengthAdjust="spacing" textLength="105" x="662.5" y="925.9951">modulo: string;</text><ellipse cx="653.5" cy="938.9453" fill="none" rx="3" ry="3" style="stroke:#038048;stroke-width:1.0;"/><text fill="#000000" font-family="sans-serif" font-size="14" lengthAdjust="spacing" textLength="107" x="662.5" y="942.292">nombre: string;</text><ellipse cx="653.5" cy="955.2422" fill="none" rx="3" ry="3" style="stroke:#038048;stroke-width:1.0;"/><text fill="#000000" font-family="sans-serif" font-size="14" lengthAdjust="spacing" textLength="123" x="662.5" y="958.5889">contenido: string;</text><line style="stroke:#181818;stroke-width:0.5;" x1="643.5" x2="790.5" y1="965.8906" y2="965.8906"/></g><!--class EditorService--><g id="elem_EditorService"><rect codeLine="9" fill="#F1F1F1" height="96.8906" id="EditorService" rx="2.5" ry="2.5" style="stroke:#181818;stroke-width:0.5;" width="310" x="562" y="712"/><ellipse cx="667.75" cy="728" fill="#ADD1B2" rx="11" ry="11" style="stroke:#181818;stroke-width:1.0;"/><path d="M667.2188,734.9219 Q665.4688,734.9219 664.3281,734.1875 Q663.2031,733.4375 662.6406,732.0938 Q662.0938,730.7344 662.0938,728.9375 Q662.0938,726.9063 662.75,725.4531 Q663.4063,724 664.6875,723.2188 Q665.9688,722.4375 667.8438,722.4375 Q668.7344,722.4375 669.4063,722.625 Q670.0781,722.7969 670.7656,723.1406 L669.9531,725.1563 Q669.3281,724.8438 668.7813,724.7188 Q668.25,724.5938 667.7656,724.5938 Q666.5938,724.5938 665.8906,725.125 Q665.1875,725.6563 664.8906,726.6094 Q664.5938,727.5625 664.5938,728.8281 Q664.5938,730.8438 665.3125,731.8125 Q666.0313,732.7656 667.625,732.7656 Q668.2188,732.7656 668.8438,732.6094 Q669.4688,732.4531 670.2969,732.0781 L670.2969,734.2969 Q669.5625,734.6094 668.7656,734.7656 Q667.9844,734.9219 667.2188,734.9219 Z " fill="#000000"/><text fill="#000000" font-family="sans-serif" font-size="14" lengthAdjust="spacing" textLength="90" x="688.25" y="732.8467">EditorService</text><line style="stroke:#181818;stroke-width:0.5;" x1="563" x2="871" y1="744" y2="744"/><rect fill="none" height="6" style="stroke:#C82930;stroke-width:1.0;" width="6" x="570" y="754.6484"/><text fill="#000000" font-family="sans-serif" font-size="14" lengthAdjust="spacing" textLength="160" x="582" y="760.9951">archivos: ArchivoCMM[]</text><line style="stroke:#181818;stroke-width:0.5;" x1="563" x2="871" y1="768.2969" y2="768.2969"/><ellipse cx="573" cy="781.9453" fill="#84BE84" rx="3" ry="3" style="stroke:#038048;stroke-width:1.0;"/><text fill="#000000" font-family="sans-serif" font-size="14" lengthAdjust="spacing" textLength="284" x="582" y="785.292">crearArchivo(archivo: ArchivoCMM[]): void</text><ellipse cx="573" cy="798.2422" fill="#84BE84" rx="3" ry="3" style="stroke:#038048;stroke-width:1.0;"/><text fill="#000000" font-family="sans-serif" font-size="14" lengthAdjust="spacing" textLength="226" x="582" y="801.5889">obtenerArchivos(): ArchivoCMM[]</text></g><!--class LecturaArchivo--><g id="elem_LecturaArchivo"><rect codeLine="15" fill="#F1F1F1" height="64.2969" id="LecturaArchivo" rx="2.5" ry="2.5" style="stroke:#181818;stroke-width:0.5;" width="279" x="247.5" y="728.5"/><ellipse cx="332.25" cy="744.5" fill="#ADD1B2" rx="11" ry="11" style="stroke:#181818;stroke-width:1.0;"/><path d="M331.7188,751.4219 Q329.9688,751.4219 328.8281,750.6875 Q327.7031,749.9375 327.1406,748.5938 Q326.5938,747.2344 326.5938,745.4375 Q326.5938,743.4063 327.25,741.9531 Q327.9063,740.5 329.1875,739.7188 Q330.4688,738.9375 332.3438,738.9375 Q333.2344,738.9375 333.9063,739.125 Q334.5781,739.2969 335.2656,739.6406 L334.4531,741.6563 Q333.8281,741.3438 333.2813,741.2188 Q332.75,741.0938 332.2656,741.0938 Q331.0938,741.0938 330.3906,741.625 Q329.6875,742.1563 329.3906,743.1094 Q329.0938,744.0625 329.0938,745.3281 Q329.0938,747.3438 329.8125,748.3125 Q330.5313,749.2656 332.125,749.2656 Q332.7188,749.2656 333.3438,749.1094 Q333.9688,748.9531 334.7969,748.5781 L334.7969,750.7969 Q334.0625,751.1094 333.2656,751.2656 Q332.4844,751.4219 331.7188,751.4219 Z " fill="#000000"/><text fill="#000000" font-family="sans-serif" font-size="14" lengthAdjust="spacing" textLength="101" x="352.75" y="749.3467">LecturaArchivo</text><line style="stroke:#181818;stroke-width:0.5;" x1="248.5" x2="525.5" y1="760.5" y2="760.5"/><line style="stroke:#181818;stroke-width:0.5;" x1="248.5" x2="525.5" y1="768.5" y2="768.5"/><ellipse cx="258.5" cy="782.1484" fill="#84BE84" rx="3" ry="3" style="stroke:#038048;stroke-width:1.0;"/><text fill="#000000" font-family="sans-serif" font-size="14" lengthAdjust="spacing" textLength="253" x="267.5" y="785.4951">procesarYML(): ArchivosGenerados[]</text></g><!--class ArchivosGenerados--><g id="elem_ArchivosGenerados"><rect codeLine="19" fill="#F1F1F1" height="80.5938" id="ArchivosGenerados" rx="2.5" ry="2.5" style="stroke:#181818;stroke-width:0.5;" width="167" x="45.5" y="720"/><ellipse cx="60.5" cy="736" fill="#B4A7E5" rx="11" ry="11" style="stroke:#181818;stroke-width:1.0;"/><path d="M56.5313,742.5 L56.5313,740.7969 L58.8906,740.5313 L58.8906,732.3281 L56.5313,732.0625 L56.5313,730.3594 L63.6719,730.3594 L63.6719,732.0625 L61.25,732.3281 L61.25,740.5313 L63.6719,740.7969 L63.6719,742.5 L56.5313,742.5 Z " fill="#000000"/><text fill="#000000" font-family="sans-serif" font-size="14" font-style="italic" lengthAdjust="spacing" textLength="135" x="74.5" y="740.8467">ArchivosGenerados</text><line style="stroke:#181818;stroke-width:0.5;" x1="46.5" x2="211.5" y1="752" y2="752"/><ellipse cx="56.5" cy="765.6484" fill="none" rx="3" ry="3" style="stroke:#038048;stroke-width:1.0;"/><text fill="#000000" font-family="sans-serif" font-size="14" lengthAdjust="spacing" textLength="102" x="65.5" y="768.9951">nombre: string</text><ellipse cx="56.5" cy="781.9453" fill="none" rx="3" ry="3" style="stroke:#038048;stroke-width:1.0;"/><text fill="#000000" font-family="sans-serif" font-size="14" lengthAdjust="spacing" textLength="126" x="65.5" y="785.292">contenidos: string</text><line style="stroke:#181818;stroke-width:0.5;" x1="46.5" x2="211.5" y1="792.5938" y2="792.5938"/></g><!--class ParserService--><g id="elem_ParserService"><rect codeLine="24" fill="#F1F1F1" height="113.1875" id="ParserService" rx="2.5" ry="2.5" style="stroke:#181818;stroke-width:0.5;" width="223" x="275.5" y="869"/><ellipse cx="335.75" cy="885" fill="#ADD1B2" rx="11" ry="11" style="stroke:#181818;stroke-width:1.0;"/><path d="M335.2188,891.9219 Q333.4688,891.9219 332.3281,891.1875 Q331.2031,890.4375 330.6406,889.0938 Q330.0938,887.7344 330.0938,885.9375 Q330.0938,883.9063 330.75,882.4531 Q331.4063,881 332.6875,880.2188 Q333.9688,879.4375 335.8438,879.4375 Q336.7344,879.4375 337.4063,879.625 Q338.0781,879.7969 338.7656,880.1406 L337.9531,882.1563 Q337.3281,881.8438 336.7813,881.7188 Q336.25,881.5938 335.7656,881.5938 Q334.5938,881.5938 333.8906,882.125 Q333.1875,882.6563 332.8906,883.6094 Q332.5938,884.5625 332.5938,885.8281 Q332.5938,887.8438 333.3125,888.8125 Q334.0313,889.7656 335.625,889.7656 Q336.2188,889.7656 336.8438,889.6094 Q337.4688,889.4531 338.2969,889.0781 L338.2969,891.2969 Q337.5625,891.6094 336.7656,891.7656 Q335.9844,891.9219 335.2188,891.9219 Z " fill="#000000"/><text fill="#000000" font-family="sans-serif" font-size="14" lengthAdjust="spacing" textLength="94" x="356.25" y="889.8467">ParserService</text><line style="stroke:#181818;stroke-width:0.5;" x1="276.5" x2="497.5" y1="901" y2="901"/><rect fill="none" height="6" style="stroke:#C82930;stroke-width:1.0;" width="6" x="283.5" y="911.6484"/><text fill="#000000" font-family="sans-serif" font-size="14" lengthAdjust="spacing" textLength="82" x="295.5" y="917.9951">errores: List</text><line style="stroke:#181818;stroke-width:0.5;" x1="276.5" x2="497.5" y1="925.2969" y2="925.2969"/><ellipse cx="286.5" cy="938.9453" fill="#84BE84" rx="3" ry="3" style="stroke:#038048;stroke-width:1.0;"/><text fill="#000000" font-family="sans-serif" font-size="14" lengthAdjust="spacing" textLength="115" x="295.5" y="942.292">getErrores(): List</text><ellipse cx="286.5" cy="955.2422" fill="#84BE84" rx="3" ry="3" style="stroke:#038048;stroke-width:1.0;"/><text fill="#000000" font-family="sans-serif" font-size="14" lengthAdjust="spacing" textLength="197" x="295.5" y="958.5889">setErrores(errores: list): void</text><ellipse cx="286.5" cy="971.5391" fill="#84BE84" rx="3" ry="3" style="stroke:#038048;stroke-width:1.0;"/><text fill="#000000" font-family="sans-serif" font-size="14" lengthAdjust="spacing" textLength="91" x="295.5" y="974.8857">limpiar(): void</text></g><!--class PaginaPrincipal--><g id="elem_PaginaPrincipal"><rect codeLine="33" fill="#F1F1F1" height="96.8906" id="PaginaPrincipal" rx="2.5" ry="2.5" style="stroke:#181818;stroke-width:0.5;" width="237" x="654.5" y="401.5"/><ellipse cx="717.25" cy="417.5" fill="#ADD1B2" rx="11" ry="11" style="stroke:#181818;stroke-width:1.0;"/><path d="M716.7188,424.4219 Q714.9688,424.4219 713.8281,423.6875 Q712.7031,422.9375 712.1406,421.5938 Q711.5938,420.2344 711.5938,418.4375 Q711.5938,416.4063 712.25,414.9531 Q712.9063,413.5 714.1875,412.7188 Q715.4688,411.9375 717.3438,411.9375 Q718.2344,411.9375 718.9063,412.125 Q719.5781,412.2969 720.2656,412.6406 L719.4531,414.6563 Q718.8281,414.3438 718.2813,414.2188 Q717.75,414.0938 717.2656,414.0938 Q716.0938,414.0938 715.3906,414.625 Q714.6875,415.1563 714.3906,416.1094 Q714.0938,417.0625 714.0938,418.3281 Q714.0938,420.3438 714.8125,421.3125 Q715.5313,422.2656 717.125,422.2656 Q717.7188,422.2656 718.3438,422.1094 Q718.9688,421.9531 719.7969,421.5781 L719.7969,423.7969 Q719.0625,424.1094 718.2656,424.2656 Q717.4844,424.4219 716.7188,424.4219 Z " fill="#000000"/><text fill="#000000" font-family="sans-serif" font-size="14" lengthAdjust="spacing" textLength="103" x="737.75" y="422.3467">PaginaPrincipal</text><line style="stroke:#181818;stroke-width:0.5;" x1="655.5" x2="890.5" y1="433.5" y2="433.5"/><line style="stroke:#181818;stroke-width:0.5;" x1="655.5" x2="890.5" y1="441.5" y2="441.5"/><ellipse cx="665.5" cy="455.1484" fill="#84BE84" rx="3" ry="3" style="stroke:#038048;stroke-width:1.0;"/><text fill="#000000" font-family="sans-serif" font-size="14" lengthAdjust="spacing" textLength="211" x="674.5" y="458.4951">PaginaPrincipal(router: Router)</text><ellipse cx="665.5" cy="471.4453" fill="#84BE84" rx="3" ry="3" style="stroke:#038048;stroke-width:1.0;"/><text fill="#000000" font-family="sans-serif" font-size="14" lengthAdjust="spacing" textLength="127" x="674.5" y="474.792">abrirArchivo(): void</text><ellipse cx="665.5" cy="487.7422" fill="#84BE84" rx="3" ry="3" style="stroke:#038048;stroke-width:1.0;"/><text fill="#000000" font-family="sans-serif" font-size="14" lengthAdjust="spacing" textLength="151" x="674.5" y="491.0889">leerArchivoYML(): void</text></g><!--class EditorTextoComponent--><g id="elem_EditorTextoComponent"><rect codeLine="39" fill="#F1F1F1" height="373.9375" id="EditorTextoComponent" rx="2.5" ry="2.5" style="stroke:#181818;stroke-width:0.5;" width="262" x="357" y="263"/><ellipse cx="403.25" cy="279" fill="#ADD1B2" rx="11" ry="11" style="stroke:#181818;stroke-width:1.0;"/><path d="M402.7188,285.9219 Q400.9688,285.9219 399.8281,285.1875 Q398.7031,284.4375 398.1406,283.0938 Q397.5938,281.7344 397.5938,279.9375 Q397.5938,277.9063 398.25,276.4531 Q398.9063,275 400.1875,274.2188 Q401.4688,273.4375 403.3438,273.4375 Q404.2344,273.4375 404.9063,273.625 Q405.5781,273.7969 406.2656,274.1406 L405.4531,276.1563 Q404.8281,275.8438 404.2813,275.7188 Q403.75,275.5938 403.2656,275.5938 Q402.0938,275.5938 401.3906,276.125 Q400.6875,276.6563 400.3906,277.6094 Q400.0938,278.5625 400.0938,279.8281 Q400.0938,281.8438 400.8125,282.8125 Q401.5313,283.7656 403.125,283.7656 Q403.7188,283.7656 404.3438,283.6094 Q404.9688,283.4531 405.7969,283.0781 L405.7969,285.2969 Q405.0625,285.6094 404.2656,285.7656 Q403.4844,285.9219 402.7188,285.9219 Z " fill="#000000"/><text fill="#000000" font-family="sans-serif" font-size="14" lengthAdjust="spacing" textLength="161" x="423.75" y="283.8467">EditorTextoComponent</text><line style="stroke:#181818;stroke-width:0.5;" x1="358" x2="618" y1="295" y2="295"/><rect fill="none" height="6" style="stroke:#C82930;stroke-width:1.0;" width="6" x="365" y="305.6484"/><text fill="#000000" font-family="sans-serif" font-size="14" lengthAdjust="spacing" textLength="83" x="377" y="311.9951">texto: string</text><rect fill="none" height="6" style="stroke:#C82930;stroke-width:1.0;" width="6" x="365" y="321.9453"/><text fill="#000000" font-family="sans-serif" font-size="14" lengthAdjust="spacing" textLength="76" x="377" y="328.292">lineas: int[]</text><rect fill="none" height="6" style="stroke:#C82930;stroke-width:1.0;" width="6" x="365" y="338.2422"/><text fill="#000000" font-family="sans-serif" font-size="14" lengthAdjust="spacing" textLength="104" x="377" y="344.5889">lineaCursor: int</text><rect fill="none" height="6" style="stroke:#C82930;stroke-width:1.0;" width="6" x="365" y="354.5391"/><text fill="#000000" font-family="sans-serif" font-size="14" lengthAdjust="spacing" textLength="131" x="377" y="360.8857">columnaCursor: int</text><rect fill="none" height="6" style="stroke:#C82930;stroke-width:1.0;" width="6" x="365" y="370.8359"/><text fill="#000000" font-family="sans-serif" font-size="14" lengthAdjust="spacing" textLength="143" x="377" y="377.1826">salidaConsola: string</text><rect fill="none" height="6" style="stroke:#C82930;stroke-width:1.0;" width="6" x="365" y="387.1328"/><text fill="#000000" font-family="sans-serif" font-size="14" lengthAdjust="spacing" textLength="125" x="377" y="393.4795">errorParser: string</text><rect fill="none" height="6" style="stroke:#C82930;stroke-width:1.0;" width="6" x="365" y="403.4297"/><text fill="#000000" font-family="sans-serif" font-size="14" lengthAdjust="spacing" textLength="236" x="377" y="409.7764">tablaSymbolos: Map&lt;string, {}}&gt;</text><rect fill="none" height="6" style="stroke:#C82930;stroke-width:1.0;" width="6" x="365" y="419.7266"/><text fill="#000000" font-family="sans-serif" font-size="14" lengthAdjust="spacing" textLength="235" x="377" y="426.0732">estructuraArchivos: ArchivoNodo[]</text><line style="stroke:#181818;stroke-width:0.5;" x1="358" x2="618" y1="433.375" y2="433.375"/><ellipse cx="368" cy="447.0234" fill="#84BE84" rx="3" ry="3" style="stroke:#038048;stroke-width:1.0;"/><text fill="#000000" font-family="sans-serif" font-size="14" lengthAdjust="spacing" textLength="171" x="377" y="450.3701">EditorTextoComponent()</text><ellipse cx="368" cy="463.3203" fill="#84BE84" rx="3" ry="3" style="stroke:#038048;stroke-width:1.0;"/><text fill="#000000" font-family="sans-serif" font-size="14" lengthAdjust="spacing" textLength="105" x="377" y="466.667">ngOnInit(): void</text><ellipse cx="368" cy="479.6172" fill="#84BE84" rx="3" ry="3" style="stroke:#038048;stroke-width:1.0;"/><text fill="#000000" font-family="sans-serif" font-size="14" lengthAdjust="spacing" textLength="149" x="377" y="482.9639">ngAfterViewInit(): void</text><ellipse cx="368" cy="495.9141" fill="#84BE84" rx="3" ry="3" style="stroke:#038048;stroke-width:1.0;"/><text fill="#000000" font-family="sans-serif" font-size="14" lengthAdjust="spacing" textLength="100" x="377" y="499.2607">onInput(): void</text><ellipse cx="368" cy="512.2109" fill="#84BE84" rx="3" ry="3" style="stroke:#038048;stroke-width:1.0;"/><text fill="#000000" font-family="sans-serif" font-size="14" lengthAdjust="spacing" textLength="156" x="377" y="515.5576">actualizarLineas(): void</text><ellipse cx="368" cy="528.5078" fill="#84BE84" rx="3" ry="3" style="stroke:#038048;stroke-width:1.0;"/><text fill="#000000" font-family="sans-serif" font-size="14" lengthAdjust="spacing" textLength="216" x="377" y="531.8545">actualizarPosicionCursor(): void</text><ellipse cx="368" cy="544.8047" fill="#84BE84" rx="3" ry="3" style="stroke:#038048;stroke-width:1.0;"/><text fill="#000000" font-family="sans-serif" font-size="14" lengthAdjust="spacing" textLength="159" x="377" y="548.1514">sincronizarScroll(): void</text><ellipse cx="368" cy="561.1016" fill="#84BE84" rx="3" ry="3" style="stroke:#038048;stroke-width:1.0;"/><text fill="#000000" font-family="sans-serif" font-size="14" lengthAdjust="spacing" textLength="141" x="377" y="564.4482">obtenerTexto(): void</text><ellipse cx="368" cy="577.3984" fill="#84BE84" rx="3" ry="3" style="stroke:#038048;stroke-width:1.0;"/><text fill="#000000" font-family="sans-serif" font-size="14" lengthAdjust="spacing" textLength="131" x="377" y="580.7451">abrirCarpeta(): void</text><rect fill="#F24D5C" height="6" style="stroke:#C82930;stroke-width:1.0;" width="6" x="365" y="590.6953"/><text fill="#000000" font-family="sans-serif" font-size="14" lengthAdjust="spacing" textLength="169" x="377" y="597.042">recorrerDirectorio(): void</text><ellipse cx="368" cy="609.9922" fill="#84BE84" rx="3" ry="3" style="stroke:#038048;stroke-width:1.0;"/><text fill="#000000" font-family="sans-serif" font-size="14" lengthAdjust="spacing" textLength="127" x="377" y="613.3389">abrirArchivo(): void</text><rect fill="#F24D5C" height="6" style="stroke:#C82930;stroke-width:1.0;" width="6" x="365" y="623.2891"/><text fill="#000000" font-family="sans-serif" font-size="14" lengthAdjust="spacing" textLength="171" x="377" y="629.6357">manejarTabulador(): void</text></g><!--class Reportes--><g id="elem_Reportes"><rect codeLine="62" fill="#F1F1F1" height="96.8906" id="Reportes" rx="2.5" ry="2.5" style="stroke:#181818;stroke-width:0.5;" width="275" x="46.5" y="401.5"/><ellipse cx="147.75" cy="417.5" fill="#ADD1B2" rx="11" ry="11" style="stroke:#181818;stroke-width:1.0;"/><path d="M147.2188,424.4219 Q145.4688,424.4219 144.3281,423.6875 Q143.2031,422.9375 142.6406,421.5938 Q142.0938,420.2344 142.0938,418.4375 Q142.0938,416.4063 142.75,414.9531 Q143.4063,413.5 144.6875,412.7188 Q145.9688,411.9375 147.8438,411.9375 Q148.7344,411.9375 149.4063,412.125 Q150.0781,412.2969 150.7656,412.6406 L149.9531,414.6563 Q149.3281,414.3438 148.7813,414.2188 Q148.25,414.0938 147.7656,414.0938 Q146.5938,414.0938 145.8906,414.625 Q145.1875,415.1563 144.8906,416.1094 Q144.5938,417.0625 144.5938,418.3281 Q144.5938,420.3438 145.3125,421.3125 Q146.0313,422.2656 147.625,422.2656 Q148.2188,422.2656 148.8438,422.1094 Q149.4688,421.9531 150.2969,421.5781 L150.2969,423.7969 Q149.5625,424.1094 148.7656,424.2656 Q147.9844,424.4219 147.2188,424.4219 Z " fill="#000000"/><text fill="#000000" font-family="sans-serif" font-size="14" lengthAdjust="spacing" textLength="64" x="168.25" y="422.3467">Reportes</text><line style="stroke:#181818;stroke-width:0.5;" x1="47.5" x2="320.5" y1="433.5" y2="433.5"/><rect fill="none" height="6" style="stroke:#C82930;stroke-width:1.0;" width="6" x="54.5" y="444.1484"/><text fill="#000000" font-family="sans-serif" font-size="14" lengthAdjust="spacing" textLength="82" x="66.5" y="450.4951">errores: List</text><line style="stroke:#181818;stroke-width:0.5;" x1="47.5" x2="320.5" y1="457.7969" y2="457.7969"/><ellipse cx="57.5" cy="471.4453" fill="#84BE84" rx="3" ry="3" style="stroke:#038048;stroke-width:1.0;"/><text fill="#000000" font-family="sans-serif" font-size="14" lengthAdjust="spacing" textLength="249" x="66.5" y="474.792">Reportes(errorService: ErrorService)</text><ellipse cx="57.5" cy="487.7422" fill="#84BE84" rx="3" ry="3" style="stroke:#038048;stroke-width:1.0;"/><text fill="#000000" font-family="sans-serif" font-size="14" lengthAdjust="spacing" textLength="96" x="66.5" y="491.0889">gOnInit(): void</text></g><!--class Parser--><g id="elem_Parser"><rect codeLine="81" fill="#F1F1F1" height="80.5938" id="Parser" rx="2.5" ry="2.5" style="stroke:#181818;stroke-width:0.5;" width="158" x="308" y="1081"/><ellipse cx="360.75" cy="1097" fill="#ADD1B2" rx="11" ry="11" style="stroke:#181818;stroke-width:1.0;"/><path d="M360.2188,1103.9219 Q358.4688,1103.9219 357.3281,1103.1875 Q356.2031,1102.4375 355.6406,1101.0938 Q355.0938,1099.7344 355.0938,1097.9375 Q355.0938,1095.9063 355.75,1094.4531 Q356.4063,1093 357.6875,1092.2188 Q358.9688,1091.4375 360.8438,1091.4375 Q361.7344,1091.4375 362.4063,1091.625 Q363.0781,1091.7969 363.7656,1092.1406 L362.9531,1094.1563 Q362.3281,1093.8438 361.7813,1093.7188 Q361.25,1093.5938 360.7656,1093.5938 Q359.5938,1093.5938 358.8906,1094.125 Q358.1875,1094.6563 357.8906,1095.6094 Q357.5938,1096.5625 357.5938,1097.8281 Q357.5938,1099.8438 358.3125,1100.8125 Q359.0313,1101.7656 360.625,1101.7656 Q361.2188,1101.7656 361.8438,1101.6094 Q362.4688,1101.4531 363.2969,1101.0781 L363.2969,1103.2969 Q362.5625,1103.6094 361.7656,1103.7656 Q360.9844,1103.9219 360.2188,1103.9219 Z " fill="#000000"/><text fill="#000000" font-family="sans-serif" font-size="14" lengthAdjust="spacing" textLength="44" x="381.25" y="1101.8467">Parser</text><line style="stroke:#181818;stroke-width:0.5;" x1="309" x2="465" y1="1113" y2="1113"/><line style="stroke:#181818;stroke-width:0.5;" x1="309" x2="465" y1="1121" y2="1121"/><ellipse cx="319" cy="1134.6484" fill="#84BE84" rx="3" ry="3" style="stroke:#038048;stroke-width:1.0;"/><text fill="#000000" font-family="sans-serif" font-size="14" lengthAdjust="spacing" textLength="117" x="328" y="1137.9951">generateParser()</text><ellipse cx="319" cy="1150.9453" fill="#84BE84" rx="3" ry="3" style="stroke:#038048;stroke-width:1.0;"/><text fill="#000000" font-family="sans-serif" font-size="14" lengthAdjust="spacing" textLength="132" x="328" y="1154.292">parse(input: string)</text></g><!--class InicioComponent--><g id="elem_InicioComponent"><rect codeLine="87" fill="#F1F1F1" height="64.2969" id="InicioComponent" rx="2.5" ry="2.5" style="stroke:#181818;stroke-width:0.5;" width="149" x="947.5" y="418"/><ellipse cx="962.5" cy="434" fill="#ADD1B2" rx="11" ry="11" style="stroke:#181818;stroke-width:1.0;"/><path d="M961.9688,440.9219 Q960.2188,440.9219 959.0781,440.1875 Q957.9531,439.4375 957.3906,438.0938 Q956.8438,436.7344 956.8438,434.9375 Q956.8438,432.9063 957.5,431.4531 Q958.1563,430 959.4375,429.2188 Q960.7188,428.4375 962.5938,428.4375 Q963.4844,428.4375 964.1563,428.625 Q964.8281,428.7969 965.5156,429.1406 L964.7031,431.1563 Q964.0781,430.8438 963.5313,430.7188 Q963,430.5938 962.5156,430.5938 Q961.3438,430.5938 960.6406,431.125 Q959.9375,431.6563 959.6406,432.6094 Q959.3438,433.5625 959.3438,434.8281 Q959.3438,436.8438 960.0625,437.8125 Q960.7813,438.7656 962.375,438.7656 Q962.9688,438.7656 963.5938,438.6094 Q964.2188,438.4531 965.0469,438.0781 L965.0469,440.2969 Q964.3125,440.6094 963.5156,440.7656 Q962.7344,440.9219 961.9688,440.9219 Z " fill="#000000"/><text fill="#000000" font-family="sans-serif" font-size="14" lengthAdjust="spacing" textLength="117" x="976.5" y="438.8467">InicioComponent</text><line style="stroke:#181818;stroke-width:0.5;" x1="948.5" x2="1095.5" y1="450" y2="450"/><line style="stroke:#181818;stroke-width:0.5;" x1="948.5" x2="1095.5" y1="458" y2="458"/><ellipse cx="958.5" cy="471.6484" fill="#84BE84" rx="3" ry="3" style="stroke:#038048;stroke-width:1.0;"/><text fill="#000000" font-family="sans-serif" font-size="14" lengthAdjust="spacing" textLength="88" x="967.5" y="474.9951">cargarInicio()</text></g><!--reverse link AppComponent to EditorTextoComponent--><g id="link_AppComponent_EditorTextoComponent"><path codeLine="91" d="M590.2855,214.1706 C582.2355,232.6406 578.14,242.05 569.03,262.98 " fill="none" id="AppComponent-backto-EditorTextoComponent" style="stroke:#181818;stroke-width:1.0;"/><polygon fill="#181818" points="595.08,203.17,589.0159,207.0721,590.2855,214.1706,596.3496,210.2685,595.08,203.17" style="stroke:#181818;stroke-width:1.0;"/></g><!--reverse link AppComponent to InicioComponent--><g id="link_AppComponent_InicioComponent"><path codeLine="92" d="M763.3017,147.0638 C816.2217,161.2338 864.37,181.56 908,220 C969.31,274.02 1001.38,368.69 1014.57,417.67 " fill="none" id="AppComponent-backto-InicioComponent" style="stroke:#181818;stroke-width:1.0;"/><polygon fill="#181818" points="751.71,143.96,756.4712,149.3758,763.3017,147.0638,758.5404,141.648,751.71,143.96" style="stroke:#181818;stroke-width:1.0;"/></g><!--reverse link AppComponent to Reportes--><g id="link_AppComponent_Reportes"><path codeLine="93" d="M496.7607,148.087 C441.3707,162.577 389,182.92 340,220 C276.51,268.04 229.91,349.68 204.9,401.39 " fill="none" id="AppComponent-backto-Reportes" style="stroke:#181818;stroke-width:1.0;"/><polygon fill="#181818" points="508.37,145.05,501.553,142.6987,496.7607,148.087,503.5777,150.4383,508.37,145.05" style="stroke:#181818;stroke-width:1.0;"/></g><!--reverse link AppComponent to PaginaPrincipal--><g id="link_AppComponent_PaginaPrincipal"><path codeLine="94" d="M669.9807,214.1591 C697.2707,276.3691 729.36,349.52 752.15,401.48 " fill="none" id="AppComponent-backto-PaginaPrincipal" style="stroke:#181818;stroke-width:1.0;"/><polygon fill="#181818" points="665.16,203.17,663.9073,210.2715,669.9807,214.1591,671.2334,207.0577,665.16,203.17" style="stroke:#181818;stroke-width:1.0;"/></g><!--link EditorTextoComponent to EditorService--><g id="link_EditorTextoComponent_EditorService"><path codeLine="96" d="M619.18,637.26 C625.16,645.31 631.12,653.26 637,661 C649.79,677.84 660.446,691.2519 673.506,707.2519 " fill="none" id="EditorTextoComponent-to-EditorService" style="stroke:#181818;stroke-width:1.0;"/><polygon fill="#181818" points="677.3,711.9,674.7077,702.3984,674.1383,708.0265,668.5102,707.4572,677.3,711.9" style="stroke:#181818;stroke-width:1.0;"/></g><!--link Reportes to LecturaArchivo--><g id="link_Reportes_LecturaArchivo"><path codeLine="97" d="M215.27,498.53 C257.31,562.42 327.582,669.1977 363.212,723.3477 " fill="none" id="Reportes-to-LecturaArchivo" style="stroke:#181818;stroke-width:1.0;"/><polygon fill="#181818" points="366.51,728.36,364.9045,718.6429,363.7616,724.1831,358.2214,723.0402,366.51,728.36" style="stroke:#181818;stroke-width:1.0;"/></g><!--link EditorService to ArchivoCMM--><g id="link_EditorService_ArchivoCMM"><path codeLine="98" d="M717,809.08 C717,830.42 717,849.52 717,870.86 " fill="none" id="EditorService-to-ArchivoCMM" style="stroke:#181818;stroke-width:1.0;"/><polygon fill="#181818" points="717,876.86,721,867.86,717,871.86,713,867.86,717,876.86" style="stroke:#181818;stroke-width:1.0;"/></g><!--link LecturaArchivo to ParserService--><g id="link_LecturaArchivo_ParserService"><path codeLine="99" d="M387,792.54 C387,814.06 387,837.33 387,862.83 " fill="none" id="LecturaArchivo-to-ParserService" style="stroke:#181818;stroke-width:1.0;"/><polygon fill="#181818" points="387,868.83,391,859.83,387,863.83,383,859.83,387,868.83" style="stroke:#181818;stroke-width:1.0;"/></g><!--reverse link ParserService to Parser--><g id="link_ParserService_Parser"><path codeLine="100" d="M387,994.09 C387,1025.67 387,1052.45 387,1080.92 " fill="none" id="ParserService-backto-Parser" style="stroke:#181818;stroke-width:1.0;"/><polygon fill="#181818" points="387,982.09,383,988.09,387,994.09,391,988.09,387,982.09" style="stroke:#181818;stroke-width:1.0;"/></g><!--SRC=[bLRRRjim37ttL_WnMUOVo8O2HTOD0vAjQ8i2mx07scOzhR8eK79sG_vzKcmdjYodc5_Y-1nUH1vHqb0yGuKfQ9t-JLBtwEvBxdvHbTrN_mXbaP-WmFIQY-zYJvlTRW3xPrLJsKXQfyQoKDMRCQYepXbdm8ASUoNAYF4XERqM4en9RqfXYU-Hzy9bCquXWpOvinwa-VLR48mHk8CNdS6OlrodUnBbs8noboBsXcQnd8anINYBXMqOEd9ODCrKe07-ijiEN9eFFXQKPEAU9-qu6uG1neMVgRkPu9Dbt08RdAixCXEZyx8LnevZL6XlMjIlRugRCtxo8XqhsWGfQYs05o5uI0Ovzof-ukFoXZBkbr891RTklONG8CEA1V22gN7LNgTtnz_bc0mvYvEQuZdZIJLTauFKem9_m5-MDbHhKgXiM6_hqMXFCoaKWgkXaqYW_1RQD6o8Z_WOBKWsjPh73KXHmeQK8GdnsCS6jaA94opa4kv_rpb9hxaTwBSjxNNwzt2u2hmvg1dkdVEs_aGbXViwLhT5q2rLVLOVbR3nJgdg-ibr-57WptaIEGUwcG71fUlAz0TuUsp3IwnRCg8GfDgYnzd6wT0fsTFltOkKYqlpwRZ-cR1UgXjWZHQYZ8on86RaTyAzkMAAIvukYJwhGU4Fu0V86-cc4hyi-plKn1RDVuoMtgGT7DreMgStWtz1_-VQFveVRJxNMiUsNrQZQhgbFmeZSkaYvaGIGPr8gw7nxFp8B5MLnDtPuIIlh92YU7xVkD4-nLI3UvgrlDYZxC9GEYIk3lqCRQoGVKk6vy2W8cx2-wF7OeiCjjnA-oyBuVTBFm-MvnYjFzSFjmF2KgyAu0gu1PrBHnyrv5MMHGVbb1Nudn9w5KsHu218akXephAhyQKaEKdPG-FZFnbVNppXV8j8Wgk2HqV7RZ8-XDiS_PT_]--></g></svg>